<svg width="38" height="33" viewBox="0 0 38 33" fill="none" xmlns="http://www.w3.org/2000/svg">
<path fill-rule="evenodd" clip-rule="evenodd" d="M11.5 33C17.8513 33 23 27.8513 23 21.5C23 15.1487 17.8513 10 11.5 10C5.14873 10 0 15.1487 0 21.5C0 27.8513 5.14873 33 11.5 33ZM12.6617 15.6467H11.5517V17.2993C11.1803 17.3482 10.8353 17.4524 10.5167 17.6117C10.0567 17.8317 9.69167 18.1367 9.42167 18.5267C9.15167 18.9067 9.01667 19.3367 9.01667 19.8167C9.01667 20.2967 9.10167 20.7067 9.27167 21.0467C9.45167 21.3867 9.67667 21.6767 9.94667 21.9167C10.2167 22.1467 10.5017 22.3367 10.8017 22.4867C11.1117 22.6367 11.3967 22.7567 11.6567 22.8467C12.0567 22.9867 12.4417 23.1517 12.8117 23.3417C13.1917 23.5317 13.5017 23.7717 13.7417 24.0617C13.9917 24.3517 14.1167 24.7217 14.1167 25.1717C14.1167 25.5217 14.0467 25.8267 13.9067 26.0867C13.7767 26.3367 13.5767 26.5317 13.3067 26.6717C13.0467 26.8017 12.7167 26.8667 12.3167 26.8667C11.8867 26.8667 11.5017 26.7717 11.1617 26.5817C10.8317 26.3917 10.5367 26.1217 10.2767 25.7717C10.0167 25.4217 9.78167 25.0067 9.57167 24.5267L8.49167 25.1717C8.71167 25.7517 9.00167 26.2567 9.36167 26.6867C9.73167 27.1167 10.1617 27.4567 10.6517 27.7067C10.938 27.8469 11.238 27.9462 11.5517 28.0045V29.5967H12.6617V28.0506C13.179 28.0095 13.624 27.8899 13.9967 27.6917C14.4667 27.4417 14.8217 27.0917 15.0617 26.6417C15.3117 26.1817 15.4367 25.6567 15.4367 25.0667C15.4367 24.5867 15.3517 24.1767 15.1817 23.8367C15.0117 23.4867 14.7917 23.1967 14.5217 22.9667C14.2517 22.7267 13.9617 22.5267 13.6517 22.3667C13.3417 22.2067 13.0517 22.0767 12.7817 21.9767C12.3617 21.8167 11.9667 21.6517 11.5967 21.4817C11.2267 21.3017 10.9267 21.0917 10.6967 20.8517C10.4667 20.6017 10.3517 20.2867 10.3517 19.9067C10.3517 19.5967 10.4117 19.3367 10.5317 19.1267C10.6517 18.9167 10.8367 18.7567 11.0867 18.6467C11.3467 18.5367 11.6767 18.4817 12.0767 18.4817C12.4667 18.4817 12.7967 18.5667 13.0667 18.7367C13.3367 18.8967 13.5667 19.1117 13.7567 19.3817C13.9467 19.6417 14.1167 19.9167 14.2667 20.2067L15.3017 19.5167C15.1617 19.1567 14.9417 18.8067 14.6417 18.4667C14.3517 18.1167 13.9917 17.8317 13.5617 17.6117C13.2897 17.4662 12.9897 17.3667 12.6617 17.3133V15.6467Z" fill="#D9D9D9"/>
<path fill-rule="evenodd" clip-rule="evenodd" d="M26 24C32.6274 24 38 18.6274 38 12C38 5.37258 32.6274 0 26 0C19.3726 0 14 5.37258 14 12C14 18.6274 19.3726 24 26 24ZM26.995 5.73H25.885V7.38259C25.5136 7.43156 25.1686 7.53569 24.85 7.695C24.39 7.915 24.025 8.22 23.755 8.61C23.485 8.99 23.35 9.42 23.35 9.9C23.35 10.38 23.435 10.79 23.605 11.13C23.785 11.47 24.01 11.76 24.28 12C24.55 12.23 24.835 12.42 25.135 12.57C25.445 12.72 25.73 12.84 25.99 12.93C26.39 13.07 26.775 13.235 27.145 13.425C27.525 13.615 27.835 13.855 28.075 14.145C28.325 14.435 28.45 14.805 28.45 15.255C28.45 15.605 28.38 15.91 28.24 16.17C28.11 16.42 27.91 16.615 27.64 16.755C27.38 16.885 27.05 16.95 26.65 16.95C26.22 16.95 25.835 16.855 25.495 16.665C25.165 16.475 24.87 16.205 24.61 15.855C24.35 15.505 24.115 15.09 23.905 14.61L22.825 15.255C23.045 15.835 23.335 16.34 23.695 16.77C24.065 17.2 24.495 17.54 24.985 17.79C25.2713 17.9303 25.5713 18.0295 25.885 18.0878V19.68H26.995V18.1339C27.5123 18.0929 27.9573 17.9732 28.33 17.775C28.8 17.525 29.155 17.175 29.395 16.725C29.645 16.265 29.77 15.74 29.77 15.15C29.77 14.67 29.685 14.26 29.515 13.92C29.345 13.57 29.125 13.28 28.855 13.05C28.585 12.81 28.295 12.61 27.985 12.45C27.675 12.29 27.385 12.16 27.115 12.06C26.695 11.9 26.3 11.735 25.93 11.565C25.56 11.385 25.26 11.175 25.03 10.935C24.8 10.685 24.685 10.37 24.685 9.99C24.685 9.68 24.745 9.42 24.865 9.21C24.985 9 25.17 8.84 25.42 8.73C25.68 8.62 26.01 8.565 26.41 8.565C26.8 8.565 27.13 8.65 27.4 8.82C27.67 8.98 27.9 9.195 28.09 9.465C28.28 9.725 28.45 10 28.6 10.29L29.635 9.6C29.495 9.24 29.275 8.89 28.975 8.55C28.685 8.2 28.325 7.915 27.895 7.695C27.623 7.54952 27.323 7.45004 26.995 7.39658V5.73Z" fill="#C40404"/>
</svg>
