<?xml version="1.0" encoding="utf-8"?>
<svg width="32" height="32" viewBox="5.333000183105469 0 22.66699981689453 32" xmlns="http://www.w3.org/2000/svg">
  <path d="M16.678 0C22.921 0 28 5.011 28 11.171c0 2.802-1.882 6.773-4.115 10.497l-.386.636C20.325 27.473 16.636 32 16.636 32S5.333 16.302 5.333 11.171C5.333 5.011 10.423 0 16.678 0zm0 1.6c-5.364 0-9.726 4.294-9.726 9.571 0 3.586 6.546 13.6 9.76 18.155 2.284-2.921 9.669-12.787 9.669-18.155 0-5.277-4.354-9.571-9.703-9.571zm-.011 3.194c3.124 0 5.666 2.51 5.666 5.596 0 3.088-2.542 5.602-5.666 5.602-3.125 0-5.667-2.514-5.667-5.602 0-3.086 2.542-5.596 5.667-5.596zm0 1.6c-2.233 0-4.048 1.793-4.048 3.996 0 2.207 1.815 4.002 4.048 4.002 2.232 0 4.047-1.795 4.047-4.002 0-2.203-1.815-3.996-4.047-3.996z" fill="#000000" fill-rule="evenodd"/>
</svg>