<?xml version="1.0" encoding="utf-8"?>
<svg width="32" height="32" viewBox="0 0 32.000999450683594 32" xmlns="http://www.w3.org/2000/svg">
  <path d="M30.3 26.838l-.114.122c-.498.496-2.543 2.531-2.556 2.542-.233.247-1.27.885-3.225.898h-.05c-2.51 0-7.75-1.115-14.952-8.474C-.061 12.26 1.198 5.934 2.422 4.381L5.08 1.704a.35.35 0 0 1 .502-.003l.005-.005c.275.282 1.32 1.323 5.607 5.592h-.002l.319.322c.128.128.174.35.01.515l-.202.21v.003c-.612.614-2.449 2.462-2.449 2.464C7.185 12.5 9 14.74 9.974 15.944c1.526 1.886 3.454 3.81 5.432 5.418 2.333 1.89 4.35 3.532 5.981 1.89l2.637-2.67a.348.348 0 0 1 .504 0c.081.082 4.458 4.437 5.53 5.506l.233.237c.128.128.168.357.01.513zm1.356-1.363l-.235-.288-5.77-5.745.003.004a1.938 1.938 0 0 0-1.374-.57h-.007a1.946 1.946 0 0 0-1.385.582l-2.637 2.667c-.472.475-1.334.024-3.837-2.007-1.893-1.539-3.74-3.379-5.198-5.18-1.356-1.676-1.696-2.519-1.21-3.01 1.482-1.49 2.646-2.672 2.646-2.672a1.96 1.96 0 0 0 .295-2.387l-.304-.395S6.835.688 6.708.56a1.962 1.962 0 0 0-2.763.018L1.228 3.32c-1.9 2.398-2.875 9.608 7.03 19.725C15.493 30.435 20.993 32 24.353 32h.062c2.26-.014 3.767-.758 4.359-1.376 1.605-1.597 2.662-2.658 2.662-2.658.67-.673.744-1.726.221-2.49z" fill="#000000" fill-rule="evenodd"/>
</svg>