<?xml version="1.0" encoding="UTF-8"?>
<svg width="32px" height="32px" viewBox="0 0 32 32" version="1.1" xmlns="http://www.w3.org/2000/svg" xmlns:xlink="http://www.w3.org/1999/xlink">
    <title>EBAFB45F-62C8-4D14-B409-C36E68AAA140</title>
    <g id="large-breakpoint" stroke="none" stroke-width="1" fill="none" fill-rule="evenodd">
        <g id="unauth-1.1-search-results" transform="translate(-881.000000, -2457.000000)" fill="#000000">
            <g id="help-section" transform="translate(0.000000, 2237.000000)">
                <g id="card-faqs" transform="translate(732.000000, 164.000000)">
                    <g id="icon/brand/help&amp;support/icon_help_black" transform="translate(149.000000, 56.000000)">
                        <path d="M16,0 C24.8224,0 32,7.1776 32,16 C32,24.8224 24.8224,32 16,32 C7.1776,32 0,24.8224 0,16 C0,7.1776 7.1776,0 16,0 Z M16,1.6 C8.0608,1.6 1.6,8.0592 1.6,16 C1.6,23.9408 8.0608,30.4 16,30.4 C23.9408,30.4 30.4,23.9408 30.4,16 C30.4,8.0592 23.9408,1.6 16,1.6 Z M15.0864,23.7712 C15.7264,23.7712 16.232,24.2784 16.232,24.8656 C16.232,25.5312 15.7008,25.96 15.112,25.96 C14.5008,25.96 13.9664,25.5056 13.9664,24.8656 C13.9664,24.2784 14.4736,23.7712 15.0864,23.7712 Z M15.8784,6.4 C21.0416,6.4 21.6,9.496 21.6,10.8256 C21.6,13.0944 19.752,14.7408 18.1216,16.1952 C16.824,17.352 15.5968,18.4448 15.5968,19.5312 C15.5968,20.0544 15.6976,20.6448 15.8272,21.3904 L15.8272,21.3904 L14.2512,21.6672 C14.1088,20.8416 13.9968,20.192 13.9968,19.5312 C13.9968,17.8782667 15.3036,16.5762333 16.6810954,15.3367167 L17.0576,15 L17.0576,15 L17.4350306,14.6624538 C18.752862,13.4766972 20,12.2411826 20,10.8256 C20,8.9504 18.6128,8 15.8784,8 C14.5056,8 12.8544,8.288 11.4608,8.7664 L11.4608,8.7664 L10.9392,7.2544 C12.5152,6.7104 14.3152,6.4 15.8784,6.4 Z" id="Icon-Color"></path>
                    </g>
                </g>
            </g>
        </g>
    </g>
</svg>