<svg width="75" height="75" viewBox="0 0 75 75" fill="none" xmlns="http://www.w3.org/2000/svg">
<path fill-rule="evenodd" clip-rule="evenodd" d="M63.803 50.9371V59.3746H68.7499V62.4996H6.24988V59.3746H11.1968V50.9371H16.4061V26.2996L9.33113 29.834L7.9405 27.0215L37.4999 12.3027L67.0593 27.009L65.6686 29.8215L58.5936 26.2996V50.9371H63.803ZM55.4686 24.7431L37.4998 15.7931L19.5311 24.7431V50.9368H55.4686V24.7431ZM14.3218 54.0623H60.678V59.3748H14.3218V54.0623ZM30.7281 38.778V38.1249H33.8406V38.7937C33.8406 40.0405 35.5437 41.1343 37.4874 41.1343C39.4312 41.1343 41.1343 40.0437 41.1343 38.7937C41.1343 38.2812 41.1343 36.9155 37.2906 36.4343C33.0031 35.8968 30.7281 34.0124 30.7281 30.9812C30.9767 28.1952 33.1569 25.9718 35.9374 25.6687V21.8749H39.0624V25.6655C41.843 25.9687 44.0232 28.1921 44.2718 30.978V31.628H41.1468V30.978C41.1468 29.728 39.4437 28.6343 37.4999 28.6343C35.5562 28.6343 33.8531 29.728 33.8531 30.978C33.8531 31.4905 33.8531 32.853 37.6906 33.3312C41.9937 33.8687 44.2718 35.7562 44.2718 38.7905C44.057 41.592 41.8591 43.8333 39.0624 44.103V47.8905H35.9374V44.0905C33.1408 43.8208 30.9429 41.5795 30.7281 38.778Z" fill="black"/>
</svg>
