<svg width="150" height="43" viewBox="0 0 150 43" fill="none" xmlns="http://www.w3.org/2000/svg">
<g id="logo-merrill-wordmark">
<path id="bofa" fill-rule="evenodd" clip-rule="evenodd" d="M142.557 36.7774H141.188V40.638L138.695 36.7774H137.173V42.6542H138.543V38.7936L141.035 42.6542H142.557V36.7774ZM132.627 38.1845L133.332 40.3333H131.924L132.627 38.1845ZM133.389 36.7774H131.886L129.68 42.6542H131.164L131.562 41.4563H133.693L134.093 42.6542H135.615L133.389 36.7774ZM122.327 36.7774H120.577L119.074 39.896L117.609 36.7774H115.821V42.6542H117.153V38.641L119.074 42.6542L120.976 38.6605V42.6542H122.327V36.7774ZM110.944 41.5893C111.857 41.5893 112.542 40.8668 112.542 39.7062C112.542 38.5463 111.857 37.8422 110.944 37.8422C110.032 37.8422 109.347 38.5463 109.347 39.7062C109.347 40.8668 110.032 41.5893 110.944 41.5893ZM110.944 42.7875C109.024 42.7875 107.786 41.4368 107.786 39.7062C107.786 37.994 109.024 36.644 110.944 36.644C112.865 36.644 114.101 37.994 114.101 39.7062C114.101 41.4368 112.865 42.7875 110.944 42.7875ZM106.486 41.0945C105.916 41.4563 105.44 41.6081 104.945 41.6081C103.843 41.6081 103.101 40.8668 103.101 39.7442C103.101 38.641 103.843 37.8993 104.908 37.8993C105.402 37.8993 105.878 38.0324 106.41 38.4126V37.0626C105.916 36.7962 105.364 36.682 104.717 36.682C102.758 36.682 101.522 38.0324 101.522 39.7442C101.522 41.4939 102.739 42.8255 104.736 42.8255C105.402 42.8255 105.973 42.7116 106.486 42.4449V41.0945ZM95.3295 38.1845L96.0329 40.3333H94.6261L95.3295 38.1845ZM96.0896 36.7774H94.5875L92.3808 42.6542H93.8642L94.2647 41.4563H96.3947L96.7934 42.6542H98.3158L96.0896 36.7774ZM56.5041 38.1845L57.2082 40.3333H55.8007L56.5041 38.1845ZM57.2649 36.7774H55.762L53.5558 42.6542H55.0395L55.4389 41.4563H57.5693L57.9687 42.6542H59.4907L57.2649 36.7774ZM42.1601 41.5893C43.0731 41.5893 43.7577 40.8668 43.7577 39.7062C43.7577 38.5463 43.0731 37.8422 42.1601 37.8422C41.2475 37.8422 40.5625 38.5463 40.5625 39.7062C40.5625 40.8668 41.2475 41.5893 42.1601 41.5893ZM42.1601 42.7875C40.2394 42.7875 39.0025 41.4368 39.0025 39.7062C39.0025 37.994 40.2394 36.644 42.1601 36.644C44.0812 36.644 45.3177 37.994 45.3177 39.7062C45.3177 41.4368 44.0812 42.7875 42.1601 42.7875ZM2.94831 38.1845L3.65169 40.3333H2.24422L2.94831 38.1845ZM3.70843 36.7774H2.20626L0 42.6542H1.48301L1.88241 41.4563H4.01349L4.41289 42.6542H5.93422L3.70843 36.7774ZM18.2404 38.1845L18.9441 40.3333H17.5363L18.2404 38.1845ZM11.5247 37.8043C12.0195 37.8043 12.3235 38.0136 12.3235 38.4889C12.3235 38.9642 12.0195 39.1734 11.5247 39.1734H10.8589V37.8043H11.5247ZM78.3141 37.8798C78.8848 37.8798 79.1895 38.1278 79.1895 38.6031C79.1895 39.0972 78.8848 39.3639 78.3141 39.3639H77.7246V37.8798H78.3141ZM126.625 37.8798C127.196 37.8798 127.5 38.1278 127.5 38.641C127.5 39.1546 127.196 39.4207 126.625 39.4207H126.035V37.8798H126.625ZM11.6769 40.1627C12.1518 40.1627 12.4757 40.4103 12.4757 40.886C12.4757 41.3992 12.1518 41.6081 11.6769 41.6081H10.8589V40.1627H11.6769ZM82.7563 42.6542H84.2017V36.7774H82.7563V42.6542ZM46.8828 42.6542H48.3477V40.3532H50.212V39.2114H48.3477V37.9185H50.5919L50.8583 36.7774H46.8828V42.6542ZM146.275 42.6542H147.74V40.4674L149.889 36.7774H148.234L147.037 39.0596L145.819 36.7774H144.145L146.275 40.4287V42.6542ZM91.0395 41.0945C90.4699 41.4563 89.9939 41.6081 89.4987 41.6081C88.3963 41.6081 87.6546 40.8668 87.6546 39.7442C87.6546 38.641 88.3963 37.8993 89.4614 37.8993C89.9559 37.8993 90.4312 38.0324 90.964 38.4126V37.0626C90.4699 36.7962 89.9172 36.682 89.2706 36.682C87.3112 36.682 86.0754 38.0324 86.0754 39.7442C86.0754 41.4939 87.2928 42.8255 89.2894 42.8255C89.9559 42.8255 90.5266 42.7116 91.0395 42.4449V41.0945ZM70.1628 42.6542H74.2142V41.4939H71.6273V40.2195H73.663V39.0972H71.6273V37.9185H74.0049L74.271 36.7774H70.1628V42.6542ZM33.9116 42.6542L31.9713 39.6867V42.6542H30.5067V36.7774H31.9713V39.5924L33.8165 36.7774H35.452L33.5118 39.5924L35.6234 42.6542H33.9116ZM128.983 38.6605C128.983 37.4812 128.336 36.7774 126.872 36.7774H124.59V42.6542H126.035V40.543H126.872C128.336 40.543 128.983 39.7825 128.983 38.6605ZM19.0008 36.7774H17.4987L15.2924 42.6542H16.7754L17.1748 41.4563H19.3055L19.7049 42.6542H21.2266L19.0008 36.7774ZM79.3601 42.6542H80.9581L79.4928 40.1627C80.2916 39.9534 80.6718 39.3639 80.6718 38.5463C80.6718 37.4812 80.0255 36.7774 78.5613 36.7774H76.2792V42.6542H77.7246V40.3532H78.0661L79.3601 42.6542ZM28.1722 36.7774H26.8023V40.638L24.3105 36.7774H22.7888V42.6542H24.1587V38.7936L26.6498 42.6542H28.1722V36.7774ZM9.41313 42.6542H12.0195C13.3316 42.6542 13.959 41.9887 13.959 41.0378C13.959 40.2578 13.5408 39.7442 12.7037 39.5732C13.4454 39.4019 13.7881 38.9454 13.7881 38.2803C13.7881 37.4428 13.1599 36.7774 11.8478 36.7774H9.41313V42.6542ZM67.7798 36.7774H66.03L64.5278 39.896L63.0629 36.7774H61.2748V42.6542H62.6067V38.641L64.5278 42.6542L66.4294 38.6605V42.6542H67.7798V36.7774Z" fill="#012169"/>
<path id="merrill" fill-rule="evenodd" clip-rule="evenodd" d="M89.2661 30.901H98.1641V28.2559H92.4768V17.6753H89.2661V30.901ZM75.757 30.901H84.6555V28.2559H78.9692V17.6753H75.757V30.901ZM66.2727 30.901H69.4842V17.6757H66.2727V30.901ZM57.6005 21.794C57.6005 20.6988 56.9019 20.1132 55.5793 20.1132H54.2188V23.4946H55.5793C56.9019 23.4946 57.6005 22.9278 57.6005 21.794ZM61.4738 30.901H57.9782L55.0686 25.6864H54.2188V30.901H51.0634V17.6753H56.1457C59.3951 17.6753 60.8311 19.2631 60.8311 21.6624C60.8311 23.5322 59.9626 24.7979 58.1673 25.2891L61.4738 30.901ZM42.3916 21.794C42.3916 20.6988 41.6929 20.1132 40.3697 20.1132H39.0099V23.4946H40.3697C41.6929 23.4946 42.3916 22.9278 42.3916 21.794ZM46.2649 30.901H42.7693L39.8601 25.6864H39.0099V30.901H35.8545V17.6753H40.9372C44.1866 17.6753 45.6222 19.2631 45.6222 21.6624C45.6222 23.5322 44.7529 24.7979 42.958 25.2891L46.2649 30.901ZM21.4773 30.901H30.508V28.3694H24.6887V25.4218H29.2798V22.9658H24.6887V20.2072H30.0168L30.5839 17.6753H21.4773V30.901ZM15.2803 30.901H12.2951V22.0585L8.04415 30.901L3.79319 22.0585V30.901H0.902344V17.6753H4.66246L8.08174 24.8171L11.5209 17.6753H15.2803V30.901Z" fill="#012169"/>
<path id="registered" fill-rule="evenodd" clip-rule="evenodd" d="M136.605 30.6929C136.113 30.6929 135.718 30.3177 135.718 29.8316C135.718 29.3675 136.113 28.988 136.605 28.988C137.092 28.988 137.479 29.3675 137.479 29.8316C137.479 30.3177 137.092 30.6929 136.605 30.6929ZM136.605 28.7798C135.999 28.7798 135.512 29.2551 135.512 29.8316C135.512 30.4276 135.999 30.9007 136.605 30.9007C137.205 30.9007 137.691 30.4276 137.691 29.8316C137.691 29.2551 137.205 28.7798 136.605 28.7798ZM136.636 29.7402C136.615 29.7398 136.595 29.7394 136.576 29.7394H136.378V29.383H136.69C136.848 29.383 136.985 29.3993 136.985 29.5536C136.985 29.747 136.8 29.7434 136.636 29.7402ZM136.941 30.4345H137.145L136.773 29.8847C136.992 29.8775 137.159 29.7918 137.159 29.5576C137.159 29.4593 137.115 29.3534 137.024 29.3053C136.931 29.2529 136.834 29.2464 136.727 29.2464H136.202V30.4345H136.378V29.8847H136.59L136.941 30.4345Z" fill="#012169"/>
<path id="mark" fill-rule="evenodd" clip-rule="evenodd" d="M109.985 6.24766C109.949 7.13175 110.432 7.78163 111.415 7.82392C111.451 6.93946 110.969 6.28597 109.985 6.24766ZM114.173 7.71657C115.023 7.68007 115.44 7.11874 115.409 6.355C114.559 6.3879 114.142 6.95247 114.173 7.71657ZM133.687 24.0395C132.485 23.142 132.093 22.632 131.291 21.1165C130.753 20.0986 130.011 18.484 127.981 18.1573L127.982 18.1562C125.695 17.8331 122.766 16.7195 120.631 14.4145C120.417 14.1843 120.204 13.9352 119.991 13.6714C120.025 14.5891 119.827 15.8621 119.259 16.8901L118.088 15.8505C118.271 15.424 118.409 14.9242 118.463 14.3408C118.598 12.8628 118.166 11.1922 117.18 9.37019C117.137 9.29356 116.39 7.93669 115.971 7.10247L114.562 9.13055L114.791 9.92428L114.227 10.8969L114.227 10.8977C113.44 10.7021 112.049 10.7097 111.243 10.8919L110.761 9.92428H113.563C113.563 9.92428 113.734 9.52416 113.618 9.04308C113.215 7.36886 113.332 5.6426 115.493 5.60356C115.678 5.59994 115.924 5.6238 116.143 5.6144C117.442 5.56994 118.03 4.3038 118.03 3.45766C118.03 2.53163 117.338 1.6497 116.61 1.54452C116.922 2.11019 116.873 3.04308 116.696 3.41392C116.529 3.77067 116.07 4.33091 115.305 4.33091C114.793 4.33091 113.879 3.91416 112.587 3.91416C111.294 3.91416 110.38 4.33091 109.868 4.33091C109.104 4.33091 108.644 3.77067 108.477 3.41392C108.3 3.04308 108.252 2.11019 108.563 1.54452C107.846 1.62874 107.133 2.51356 107.143 3.45766C107.156 4.54958 108.096 5.71741 109.314 5.94115C109.196 6.28235 109.153 6.37344 108.817 7.36344C108.137 9.30838 107.039 12.7262 106.477 14.8262L106.478 14.8266C105.928 16.8886 106.535 18.7215 108.283 20.2739C108.654 20.6039 111.557 23.2598 112.484 24.089C112.49 23.104 112.801 21.8791 113.733 20.4308L114.877 21.4457C114.014 22.8662 113.775 24.1548 114.19 25.191C114.526 26.0285 115.296 26.6524 116.25 26.8595C116.715 26.9607 117.798 26.9014 118.651 26.8172C118.68 26.4174 118.722 25.8467 118.77 25.1762L116.299 25.3768C116.846 24.7811 117.502 23.262 117.511 21.8513H119.019C119.015 22.4556 118.922 23.0719 118.769 23.6574L122.511 23.3643L122.603 24.4363L124.626 24.2603C124.624 24.2289 124.62 24.1971 124.618 24.1656C123.566 23.6393 122.407 22.0714 122.946 19.7437H124.524C124.156 20.6422 124.21 22.1722 125.263 22.8019C125.885 23.1734 126.846 23.3737 127.72 23.5569C129.243 23.8764 130.968 24.2386 131.31 25.846C131.532 26.8942 131.096 28.3848 130.718 29.3939H132.383C132.574 27.475 133.535 24.5061 133.687 24.0395ZM129.105 25.4802C128.573 25.238 126.695 24.8965 126.274 24.7754C126.449 25.2633 126.928 25.9024 127.676 26.0498C128.415 26.1958 128.909 25.7596 129.105 25.4802ZM125.57 26.4713C125.372 26.2508 125.2 26.0032 125.058 25.7357L124.221 25.8087C123.883 27.3073 123.334 28.5268 122.864 29.3939H124.155C124.557 28.6808 125.147 27.543 125.57 26.4713ZM109.567 23.4821C109.306 23.2428 107.69 21.7645 107.327 21.4418C106.949 22.4086 108.612 25.8669 107.828 29.3939H109.123C109.372 27.3883 109.645 24.5863 109.567 23.4821ZM128.961 4.05368C129.62 4.71585 130.141 5.23886 131.072 5.23886C131.972 5.23886 132.752 4.64031 133.3 4.05368H128.961ZM135.515 23.3408C133.587 28.9399 133.853 30.0593 133.892 30.9011H128.395C128.615 30.4005 129.607 28.6016 129.838 26.8963C129.593 27.115 128.439 27.9893 126.835 27.3644C126.222 28.8872 125.211 30.5852 125.019 30.9011H120.155C120.701 29.9834 122.002 28.3645 122.635 25.9465L121.231 26.0686L121.137 24.9839L120.29 25.0526C120.185 26.5067 120.063 28.1643 120.063 28.1643C119.18 28.2846 118.016 28.4195 117.015 28.4191C116.605 28.4187 115.226 28.4878 113.854 27.2722L113.854 27.273C113.031 26.5927 112.037 25.7158 111.06 24.8361C110.977 26.9166 110.515 30.3879 110.447 30.9011H105.991C106.437 28.409 107.006 27.865 105.875 22.8763C105.693 22.0699 105.727 21.046 106.186 20.2403C104.868 18.5469 104.461 16.5807 105.012 14.4756L105.01 14.4749C105.514 12.5863 106.423 9.71573 107.113 7.68476L105.772 7.52898C105.743 7.04139 106.113 6.32211 106.581 5.92452C105.912 5.09645 105.636 4.2485 105.636 3.45766C105.729 -0.0790915 109.326 -0.0313808 110.549 0.00873973C109.711 1.32476 109.351 2.54247 109.75 2.80272C110.145 3.06043 111.067 2.40621 112.587 2.40657C114.106 2.40621 115.028 3.06043 115.423 2.80272C115.822 2.54247 115.463 1.32476 114.625 0.00873973C115.847 -0.0313808 119.444 -0.0790915 119.537 3.45766C119.537 4.2485 119.275 5.1232 118.667 5.86922C119.05 6.33151 119.406 6.99476 119.484 7.52898L117.908 7.55862C118.224 8.14778 118.482 8.61115 118.523 8.68705C119.681 10.7487 120.774 12.3514 121.736 13.3902C123.821 15.6405 126.781 16.5933 128.857 16.7343C131.196 16.894 132.581 16.4336 133.091 15.3283C133.411 14.6346 133.405 13.958 133.074 13.3168C132.37 11.9538 130.26 10.8803 127.132 10.2933C124.295 9.76091 122.261 8.93573 121.55 6.63657L121.547 6.62573C121.53 6.56717 121.14 5.185 122.019 4.01247C122.748 3.03982 124.075 2.54645 125.965 2.54645H136.07C136.021 2.6397 135.271 4.16934 134.309 5.1691C133.145 6.37669 132.022 6.74681 131.072 6.74609C129.514 6.74537 128.615 5.84247 127.891 5.11597C127.262 4.48416 126.834 4.08621 126.192 4.05368C126.031 4.05946 123.955 3.94886 123.233 4.90561C122.825 5.44597 122.978 6.13741 122.994 6.20464C123.431 7.59946 124.589 8.28259 127.41 8.81175C129.953 9.28886 133.232 10.3378 134.413 12.625C134.953 13.6703 134.97 14.8544 134.46 15.9593C133.902 17.1677 132.783 17.9032 131.125 18.1627C132.291 19.4198 132.568 20.5465 133.387 21.7089C133.699 22.1513 134.424 22.851 135.515 23.3408ZM113.731 11.7785C113.066 11.678 112.411 11.6661 111.686 11.7807L111.489 11.3845C112.118 10.8807 113.375 10.9103 113.949 11.3907L113.731 11.7785Z" fill="#012169"/>
</g>
</svg>
