<svg width="54" height="42" viewBox="0 0 54 42" fill="none" xmlns="http://www.w3.org/2000/svg">
<path d="M35 21.5574L35 28.1147L35 29.1236L35.8028 28.5126L52.3028 15.9552L52.8256 15.5574L52.3028 15.1595L35.8028 2.60212L35 1.99114L35 3L35 9.55737L20 9.55737L19.5 9.55737L19.5 10.0574L19.5 21.0574L19.5 21.5574L20 21.5574L35 21.5574Z" stroke="#1E40AF"/>
<path d="M19.5 21L19.5 14.4426L19.5 13.4338L18.6972 14.0447L2.19718 26.6021L1.67438 27L2.19718 27.3979L18.6972 39.9552L19.5 40.5662L19.5 39.5574L19.5 33L34.5 33L35 33L35 32.5L35 21.5L35 21L34.5 21L19.5 21Z" stroke="#1E40AF"/>
</svg>
