<svg width="56" height="45" viewBox="0 0 56 45" fill="none" xmlns="http://www.w3.org/2000/svg">
<path d="M35.75 22.8074L35.75 29.1147L35.75 30.628L36.9542 29.7116L53.4542 17.1542L54.2384 16.5574L53.4542 15.9605L36.9542 3.40318L35.75 2.48671L35.75 4L35.75 10.3074L21 10.3074L20.25 10.3074L20.25 11.0574L20.25 22.0574L20.25 22.8074L21 22.8074L35.75 22.8074Z" stroke="#1E40AF" stroke-width="1.5"/>
<path d="M20.25 22.75L20.25 16.4426L20.25 14.9293L19.0458 15.8458L2.54579 28.4032L1.76159 29L2.54579 29.5968L19.0458 42.1542L20.25 43.0706L20.25 41.5574L20.25 35.25L35 35.25L35.75 35.25L35.75 34.5L35.75 23.5L35.75 22.75L35 22.75L20.25 22.75Z" stroke="#1E40AF" stroke-width="1.5"/>
</svg>
