<svg width="31" height="24" viewBox="0 0 31 24" fill="none" xmlns="http://www.w3.org/2000/svg">
<path d="M11.885 5.73H12.995V7.98H11.885V5.73ZM11.885 17.28H12.995V19.68H11.885V17.28ZM14.6 10.29C14.45 10 14.28 9.725 14.09 9.465C13.9 9.195 13.67 8.98 13.4 8.82C13.13 8.65 12.8 8.565 12.41 8.565C12.01 8.565 11.68 8.62 11.42 8.73C11.17 8.84 10.985 9 10.865 9.21C10.745 9.42 10.685 9.68 10.685 9.99C10.685 10.37 10.8 10.685 11.03 10.935C11.26 11.175 11.56 11.385 11.93 11.565C12.3 11.735 12.695 11.9 13.115 12.06C13.385 12.16 13.675 12.29 13.985 12.45C14.295 12.61 14.585 12.81 14.855 13.05C15.125 13.28 15.345 13.57 15.515 13.92C15.685 14.26 15.77 14.67 15.77 15.15C15.77 15.74 15.645 16.265 15.395 16.725C15.155 17.175 14.8 17.525 14.33 17.775C13.86 18.025 13.275 18.15 12.575 18.15C12.005 18.15 11.475 18.03 10.985 17.79C10.495 17.54 10.065 17.2 9.695 16.77C9.335 16.34 9.045 15.835 8.825 15.255L9.905 14.61C10.115 15.09 10.35 15.505 10.61 15.855C10.87 16.205 11.165 16.475 11.495 16.665C11.835 16.855 12.22 16.95 12.65 16.95C13.05 16.95 13.38 16.885 13.64 16.755C13.91 16.615 14.11 16.42 14.24 16.17C14.38 15.91 14.45 15.605 14.45 15.255C14.45 14.805 14.325 14.435 14.075 14.145C13.835 13.855 13.525 13.615 13.145 13.425C12.775 13.235 12.39 13.07 11.99 12.93C11.73 12.84 11.445 12.72 11.135 12.57C10.835 12.42 10.55 12.23 10.28 12C10.01 11.76 9.785 11.47 9.605 11.13C9.435 10.79 9.35 10.38 9.35 9.9C9.35 9.42 9.485 8.99 9.755 8.61C10.025 8.22 10.39 7.915 10.85 7.695C11.31 7.465 11.825 7.35 12.395 7.35C12.965 7.35 13.465 7.465 13.895 7.695C14.325 7.915 14.685 8.2 14.975 8.55C15.275 8.89 15.495 9.24 15.635 9.6L14.6 10.29Z" fill="#1E40AF"/>
<path d="M23.25 12C23.25 18.2132 18.2132 23.25 12 23.25C5.7868 23.25 0.75 18.2132 0.75 12C0.75 5.7868 5.7868 0.75 12 0.75C18.2132 0.75 23.25 5.7868 23.25 12Z" stroke="#1E40AF" stroke-width="1.5"/>
<path d="M31 13C31 16.866 27.866 20 24 20C20.134 20 17 16.866 17 13C17 9.13401 20.134 6 24 6C27.866 6 31 9.13401 31 13Z" fill="white"/>
<path d="M17.5 12.875H25.25M25.25 12.875L20.875 9.66667M25.25 12.875L20.875 16.0833" stroke="#1E40AF" stroke-linecap="square"/>
</svg>
