<svg width="47" height="47" viewBox="0 0 47 47" fill="none" xmlns="http://www.w3.org/2000/svg">
<circle opacity="0.08" cx="23.5" cy="23.5" r="23.5" fill="#1E40AF"/>
<path d="M10.8902 23.2873L11.4288 23.973L4.85599 30.1592C4.68066 30.3243 4.41797 30.3045 4.26926 30.1152V30.1152C4.12055 29.9258 4.14213 29.6385 4.31746 29.4735L10.8902 23.2873Z" fill="#D9D9D9"/>
<path d="M8.52908 25.5096V25.5096C8.82651 25.8883 8.78335 26.4629 8.43269 26.7929L4.856 30.1592C4.68067 30.3243 4.41798 30.3045 4.26927 30.1152V30.1152C4.12056 29.9258 4.14214 29.6385 4.31747 29.4735L8.52908 25.5096Z" fill="#545050"/>
<ellipse cx="3.36662" cy="3.55926" rx="3.36662" ry="3.55926" transform="matrix(0.882184 0.470905 -0.406875 0.913484 10.9047 17.1388)" fill="#D9D9D9"/>
<mask id="mask0_20_16" style="mask-type:alpha" maskUnits="userSpaceOnUse" x="7" y="20" width="7" height="8">
<path d="M13.5679 25.603C12.7681 27.3987 10.79 28.1446 9.14974 27.269C7.50947 26.3934 6.82813 24.228 7.62794 22.4323C8.42774 20.6366 10.4058 19.8908 12.0461 20.7663C13.6864 21.6419 14.3677 23.8074 13.5679 25.603Z" fill="#D70404"/>
</mask>
<g mask="url(#mask0_20_16)">
<ellipse cx="3.36662" cy="3.55926" rx="3.36662" ry="3.55926" transform="matrix(0.882184 0.470905 -0.406875 0.913484 10.9047 17.1388)" fill="#D70404"/>
</g>
<foreignObject x="10.994" y="5.29187" width="30.7508" height="35.7682"><div xmlns="http://www.w3.org/1999/xhtml" style="backdrop-filter:blur(2px);clip-path:url(#bgblur_0_20_16_clip_path);height:100%;width:100%"></div></foreignObject><g data-figma-bg-blur-radius="4">
<rect x="0.618889" y="0.29806" width="16.3396" height="22.2648" rx="0.5" transform="matrix(0.934222 -0.356693 0.303556 0.952814 14.689 15.4198)" fill="white" style="mix-blend-mode:screen"/>
<rect x="0.618889" y="0.29806" width="16.3396" height="22.2648" rx="0.5" transform="matrix(0.934222 -0.356693 0.303556 0.952814 14.689 15.4198)" stroke="#1E40AF"/>
</g>
<rect width="11.545" height="0.651889" rx="0.325945" transform="matrix(0.93728 -0.348578 0.310867 0.950453 18.043 16.6415)" fill="#1E40AF"/>
<rect width="11.545" height="0.651889" rx="0.325945" transform="matrix(0.93728 -0.348578 0.310867 0.950453 22.7146 28.5972)" fill="#1E40AF"/>
<rect width="11.545" height="0.651889" rx="0.325945" transform="matrix(0.93728 -0.348578 0.310867 0.950453 22.7146 31.5861)" fill="#1E40AF"/>
<rect width="11.545" height="0.651889" rx="0.325945" transform="matrix(0.93728 -0.348578 0.310867 0.950453 18.043 18.6342)" fill="#1E40AF"/>
<rect width="11.545" height="0.651889" rx="0.325945" transform="matrix(0.93728 -0.348578 0.310867 0.950453 19.9117 21.623)" fill="#D70404"/>
<rect width="11.545" height="0.651889" rx="0.325945" transform="matrix(0.93728 -0.348578 0.310867 0.950453 20.846 23.6157)" fill="#D70404"/>
<path d="M15.7234 27.0594L16.4326 27.5231L11.9756 35.6911C11.8636 35.8965 11.614 35.9591 11.4181 35.8311V35.8311C11.2223 35.703 11.1544 35.4327 11.2665 35.2273L15.7234 27.0594Z" fill="#D9D9D9"/>
<path d="M14.4441 29.4038C14.5561 29.1984 14.8058 29.1357 15.0016 29.2638V29.2638C15.1974 29.3919 15.2653 29.6622 15.1532 29.8676L11.9756 35.691C11.8635 35.8964 11.6139 35.9591 11.4181 35.831V35.831C11.2223 35.703 11.1544 35.4327 11.2664 35.2273L14.4441 29.4038Z" fill="#545050"/>
<ellipse cx="3.30987" cy="3.6121" rx="3.30987" ry="3.6121" transform="matrix(0.989683 0.143277 -0.119928 0.992783 13.9586 21.2222)" fill="#D9D9D9"/>
<mask id="mask1_20_16" style="mask-type:alpha" maskUnits="userSpaceOnUse" x="12" y="24" width="7" height="8">
<path d="M18.9331 28.3277C18.6938 30.3082 17.0333 31.7014 15.2242 31.4395C13.415 31.1776 12.1424 29.3597 12.3816 27.3792C12.6209 25.3987 14.2814 24.0055 16.0905 24.2674C17.8997 24.5293 19.1723 26.3472 18.9331 28.3277Z" fill="#D70404"/>
</mask>
<g mask="url(#mask1_20_16)">
<ellipse cx="3.30987" cy="3.6121" rx="3.30987" ry="3.6121" transform="matrix(0.989683 0.143277 -0.119928 0.992783 13.9586 21.2222)" fill="#1E40AF"/>
</g>
<path fill-rule="evenodd" clip-rule="evenodd" d="M18.2508 24.335C19.2687 23.2635 19.1961 21.2567 18.0569 19.7593C16.8759 18.2071 14.9959 17.79 13.8578 18.8277C13.5295 19.1269 13.2989 19.5145 13.1651 19.9518C13.2048 19.4732 13.3935 19.0422 13.7721 18.6969C14.9102 17.6592 17.3339 17.7895 18.5148 19.3418C19.6893 20.8855 19.3737 23.2879 18.2508 24.335Z" fill="#D9D9D9"/>
<defs>
<clipPath id="bgblur_0_20_16_clip_path" transform="translate(-10.994 -5.29187)"><rect x="0.618889" y="0.29806" width="16.3396" height="22.2648" rx="0.5" transform="matrix(0.934222 -0.356693 0.303556 0.952814 14.689 15.4198)"/>
</clipPath></defs>
</svg>
