<svg width="41" height="48" viewBox="0 0 41 48" fill="none" xmlns="http://www.w3.org/2000/svg">
<path d="M0.315122 13.8669C0.308547 13.8303 0.30526 13.8121 0.302966 13.7965C0.225878 13.2743 0.568016 12.7821 1.08439 12.6723C1.09976 12.6691 1.11803 12.6658 1.15459 12.6592L27.6494 7.8936C27.686 7.88703 27.7042 7.88374 27.7198 7.88145C28.242 7.80436 28.7342 8.1465 28.844 8.66287C28.8472 8.67824 28.8505 8.69652 28.8571 8.73307L34.6849 41.1331C34.6914 41.1697 34.6947 41.188 34.697 41.2035C34.7741 41.7257 34.432 42.2179 33.9156 42.3277C33.9002 42.3309 33.882 42.3342 33.8454 42.3408L7.35059 47.1064C7.31403 47.113 7.29576 47.1163 7.28022 47.1186C6.75797 47.1957 6.26576 46.8535 6.15603 46.3371C6.15276 46.3218 6.14948 46.3035 6.1429 46.2669L0.315122 13.8669Z" fill="#D9D9D9"/>
<rect opacity="0.9" x="8" y="5" width="29" height="35" rx="1" fill="#1E40AF"/>
<circle cx="36" cy="5" r="5" fill="#C40404"/>
<path d="M13.9627 19.9C13.9627 20.196 14.0287 20.456 14.1607 20.68C14.2967 20.904 14.4727 21.078 14.6887 21.202C14.9087 21.322 15.1467 21.382 15.4027 21.382C15.6027 21.382 15.7827 21.356 15.9427 21.304C16.1027 21.252 16.2467 21.182 16.3747 21.094C16.5067 21.002 16.6207 20.9 16.7167 20.788V21.628C16.5407 21.772 16.3507 21.882 16.1467 21.958C15.9427 22.034 15.6867 22.072 15.3787 22.072C15.0707 22.072 14.7827 22.02 14.5147 21.916C14.2507 21.812 14.0207 21.662 13.8247 21.466C13.6287 21.27 13.4747 21.04 13.3627 20.776C13.2547 20.508 13.2007 20.216 13.2007 19.9C13.2007 19.584 13.2547 19.294 13.3627 19.03C13.4747 18.762 13.6287 18.53 13.8247 18.334C14.0207 18.138 14.2507 17.988 14.5147 17.884C14.7827 17.78 15.0707 17.728 15.3787 17.728C15.6867 17.728 15.9427 17.766 16.1467 17.842C16.3507 17.918 16.5407 18.028 16.7167 18.172V19.012C16.6207 18.9 16.5067 18.8 16.3747 18.712C16.2467 18.62 16.1027 18.548 15.9427 18.496C15.7827 18.444 15.6027 18.418 15.4027 18.418C15.1467 18.418 14.9087 18.48 14.6887 18.604C14.4727 18.724 14.2967 18.896 14.1607 19.12C14.0287 19.34 13.9627 19.6 13.9627 19.9ZM18.4531 19.996H19.2211L20.6431 22H19.7911L18.4531 19.996ZM17.5891 17.8H18.2971V22H17.5891V17.8ZM18.0091 18.412V17.8H18.8851C19.1891 17.8 19.4531 17.854 19.6771 17.962C19.9051 18.07 20.0811 18.222 20.2051 18.418C20.3291 18.61 20.3911 18.838 20.3911 19.102C20.3911 19.366 20.3291 19.596 20.2051 19.792C20.0811 19.988 19.9051 20.14 19.6771 20.248C19.4531 20.356 19.1891 20.41 18.8851 20.41H18.0091V19.828H18.8551C19.0151 19.828 19.1551 19.8 19.2751 19.744C19.3991 19.688 19.4951 19.608 19.5631 19.504C19.6311 19.396 19.6651 19.268 19.6651 19.12C19.6651 18.968 19.6311 18.84 19.5631 18.736C19.4951 18.632 19.3991 18.552 19.2751 18.496C19.1551 18.44 19.0151 18.412 18.8551 18.412H18.0091ZM21.5955 22V21.376H23.7135V22H21.5955ZM21.5955 18.424V17.8H23.7135V18.424H21.5955ZM21.5955 20.056V19.444H23.5935V20.056H21.5955ZM21.1575 17.8H21.8535V22H21.1575V17.8ZM24.5852 17.8H25.3052V22H24.5852V17.8ZM25.9412 22H25.0232V21.334H25.9232C26.1312 21.334 26.3232 21.304 26.4992 21.244C26.6752 21.184 26.8272 21.094 26.9552 20.974C27.0872 20.854 27.1892 20.704 27.2612 20.524C27.3372 20.344 27.3752 20.136 27.3752 19.9C27.3752 19.664 27.3372 19.456 27.2612 19.276C27.1892 19.096 27.0872 18.946 26.9552 18.826C26.8272 18.706 26.6752 18.616 26.4992 18.556C26.3232 18.496 26.1312 18.466 25.9232 18.466H25.0232V17.8H25.9412C26.3692 17.8 26.7452 17.888 27.0692 18.064C27.3932 18.236 27.6452 18.48 27.8252 18.796C28.0092 19.108 28.1012 19.476 28.1012 19.9C28.1012 20.324 28.0092 20.694 27.8252 21.01C27.6452 21.322 27.3932 21.566 27.0692 21.742C26.7452 21.914 26.3692 22 25.9412 22ZM28.7922 17.8H29.5062V22H28.7922V17.8ZM30.0246 18.454V17.8H32.9526V18.454H31.8426V22H31.1286V18.454H30.0246ZM14.3143 26.65C14.4063 26.81 14.5043 26.952 14.6083 27.076C14.7163 27.196 14.8343 27.29 14.9623 27.358C15.0903 27.422 15.2343 27.454 15.3943 27.454C15.5863 27.454 15.7423 27.402 15.8623 27.298C15.9823 27.194 16.0423 27.06 16.0423 26.896C16.0423 26.74 16.0043 26.616 15.9283 26.524C15.8523 26.428 15.7463 26.348 15.6103 26.284C15.4783 26.216 15.3243 26.15 15.1483 26.086C15.0443 26.05 14.9283 26.002 14.8003 25.942C14.6723 25.878 14.5503 25.8 14.4343 25.708C14.3183 25.612 14.2223 25.496 14.1463 25.36C14.0703 25.22 14.0323 25.052 14.0323 24.856C14.0323 24.632 14.0903 24.436 14.2063 24.268C14.3223 24.096 14.4783 23.964 14.6743 23.872C14.8743 23.776 15.1003 23.728 15.3523 23.728C15.6003 23.728 15.8163 23.772 16.0003 23.86C16.1843 23.948 16.3383 24.06 16.4623 24.196C16.5903 24.332 16.6903 24.474 16.7623 24.622L16.1863 24.946C16.1343 24.842 16.0683 24.746 15.9883 24.658C15.9083 24.566 15.8143 24.494 15.7063 24.442C15.6023 24.386 15.4803 24.358 15.3403 24.358C15.1443 24.358 15.0003 24.404 14.9083 24.496C14.8163 24.584 14.7703 24.688 14.7703 24.808C14.7703 24.916 14.8023 25.014 14.8663 25.102C14.9343 25.186 15.0383 25.266 15.1783 25.342C15.3183 25.418 15.5003 25.496 15.7243 25.576C15.8483 25.62 15.9723 25.676 16.0963 25.744C16.2243 25.812 16.3403 25.898 16.4443 26.002C16.5483 26.102 16.6303 26.22 16.6903 26.356C16.7543 26.492 16.7863 26.652 16.7863 26.836C16.7863 27.032 16.7483 27.208 16.6723 27.364C16.5963 27.52 16.4923 27.652 16.3603 27.76C16.2283 27.864 16.0783 27.944 15.9103 28C15.7463 28.06 15.5743 28.09 15.3943 28.09C15.1463 28.09 14.9163 28.042 14.7043 27.946C14.4963 27.846 14.3143 27.714 14.1583 27.55C14.0023 27.386 13.8783 27.208 13.7863 27.016L14.3143 26.65ZM18.0349 25.9C18.0349 26.196 18.1009 26.456 18.2329 26.68C18.3689 26.904 18.5449 27.078 18.7609 27.202C18.9809 27.322 19.2189 27.382 19.4749 27.382C19.6749 27.382 19.8549 27.356 20.0149 27.304C20.1749 27.252 20.3189 27.182 20.4469 27.094C20.5789 27.002 20.6929 26.9 20.7889 26.788V27.628C20.6129 27.772 20.4229 27.882 20.2189 27.958C20.0149 28.034 19.7589 28.072 19.4509 28.072C19.1429 28.072 18.8549 28.02 18.5869 27.916C18.3229 27.812 18.0929 27.662 17.8969 27.466C17.7009 27.27 17.5469 27.04 17.4349 26.776C17.3269 26.508 17.2729 26.216 17.2729 25.9C17.2729 25.584 17.3269 25.294 17.4349 25.03C17.5469 24.762 17.7009 24.53 17.8969 24.334C18.0929 24.138 18.3229 23.988 18.5869 23.884C18.8549 23.78 19.1429 23.728 19.4509 23.728C19.7589 23.728 20.0149 23.766 20.2189 23.842C20.4229 23.918 20.6129 24.028 20.7889 24.172V25.012C20.6929 24.9 20.5789 24.8 20.4469 24.712C20.3189 24.62 20.1749 24.548 20.0149 24.496C19.8549 24.444 19.6749 24.418 19.4749 24.418C19.2189 24.418 18.9809 24.48 18.7609 24.604C18.5449 24.724 18.3689 24.896 18.2329 25.12C18.1009 25.34 18.0349 25.6 18.0349 25.9ZM22.1714 25.9C22.1714 26.188 22.2314 26.446 22.3514 26.674C22.4754 26.898 22.6454 27.074 22.8614 27.202C23.0774 27.33 23.3234 27.394 23.5994 27.394C23.8794 27.394 24.1254 27.33 24.3374 27.202C24.5534 27.074 24.7214 26.898 24.8414 26.674C24.9654 26.446 25.0274 26.188 25.0274 25.9C25.0274 25.612 24.9674 25.356 24.8474 25.132C24.7274 24.904 24.5594 24.726 24.3434 24.598C24.1314 24.47 23.8834 24.406 23.5994 24.406C23.3234 24.406 23.0774 24.47 22.8614 24.598C22.6454 24.726 22.4754 24.904 22.3514 25.132C22.2314 25.356 22.1714 25.612 22.1714 25.9ZM21.4214 25.9C21.4214 25.584 21.4754 25.294 21.5834 25.03C21.6914 24.766 21.8434 24.538 22.0394 24.346C22.2394 24.15 22.4714 23.998 22.7354 23.89C23.0034 23.782 23.2914 23.728 23.5994 23.728C23.9154 23.728 24.2054 23.782 24.4694 23.89C24.7334 23.998 24.9634 24.15 25.1594 24.346C25.3594 24.538 25.5134 24.766 25.6214 25.03C25.7294 25.294 25.7834 25.584 25.7834 25.9C25.7834 26.212 25.7294 26.502 25.6214 26.77C25.5134 27.038 25.3614 27.27 25.1654 27.466C24.9694 27.662 24.7374 27.816 24.4694 27.928C24.2054 28.036 23.9154 28.09 23.5994 28.09C23.2874 28.09 22.9974 28.036 22.7294 27.928C22.4614 27.816 22.2294 27.662 22.0334 27.466C21.8414 27.27 21.6914 27.038 21.5834 26.77C21.4754 26.502 21.4214 26.212 21.4214 25.9ZM27.3359 25.996H28.1039L29.5259 28H28.6739L27.3359 25.996ZM26.4719 23.8H27.1799V28H26.4719V23.8ZM26.8919 24.412V23.8H27.7679C28.0719 23.8 28.3359 23.854 28.5599 23.962C28.7879 24.07 28.9639 24.222 29.0879 24.418C29.2119 24.61 29.2739 24.838 29.2739 25.102C29.2739 25.366 29.2119 25.596 29.0879 25.792C28.9639 25.988 28.7879 26.14 28.5599 26.248C28.3359 26.356 28.0719 26.41 27.7679 26.41H26.8919V25.828H27.7379C27.8979 25.828 28.0379 25.8 28.1579 25.744C28.2819 25.688 28.3779 25.608 28.4459 25.504C28.5139 25.396 28.5479 25.268 28.5479 25.12C28.5479 24.968 28.5139 24.84 28.4459 24.736C28.3779 24.632 28.2819 24.552 28.1579 24.496C28.0379 24.44 27.8979 24.412 27.7379 24.412H26.8919ZM30.4783 28V27.376H32.5963V28H30.4783ZM30.4783 24.424V23.8H32.5963V24.424H30.4783ZM30.4783 26.056V25.444H32.4763V26.056H30.4783ZM30.0403 23.8H30.7363V28H30.0403V23.8Z" fill="white" fill-opacity="0.65"/>
</svg>
