<svg width="312" height="32" viewBox="0 0 312 32" fill="none" xmlns="http://www.w3.org/2000/svg">
<g clip-path="url(#clip0_1_75)">
<g clip-path="url(#clip1_1_75)">
<g clip-path="url(#clip2_1_75)">
<path d="M287.394 30.2881C287.394 29.5964 287.956 29.0343 288.69 29.0343C289.425 29.0343 289.987 29.5964 289.987 30.2881C289.987 30.9798 289.425 31.585 288.69 31.585C287.956 31.585 287.394 31.023 287.394 30.2881ZM287.653 30.2881C287.653 30.8501 288.128 31.3256 288.734 31.3256C289.296 31.3256 289.771 30.8933 289.771 30.2881C289.771 29.7261 289.296 29.2937 288.734 29.2937C288.085 29.2937 287.653 29.7693 287.653 30.2881Z" fill="#E31837"/>
<path d="M289.339 31.023H289.08L288.647 30.3745H288.388V31.023H288.215V29.5964H288.863C288.993 29.5964 289.123 29.5964 289.209 29.6828C289.339 29.7261 289.382 29.8557 289.382 29.9854C289.382 30.2448 289.166 30.3745 288.907 30.3745L289.339 31.023ZM288.647 30.2016C288.863 30.2016 289.123 30.2448 289.123 29.9854C289.123 29.8125 288.95 29.7693 288.777 29.7693H288.388V30.2016H288.647Z" fill="#E31837"/>
<path d="M282.508 31.585C291.587 23.8033 304.34 16.2378 311.344 13.5142C310.263 12.8225 308.577 11.8282 306.675 10.7474C297.639 13.7303 287.091 20.3448 277.666 27.8239C279.266 29.0343 280.952 30.2881 282.508 31.585Z" fill="#E31837"/>
<path d="M278.358 10.4447C277.018 9.79626 275.548 9.19102 274.424 8.67224C271.009 10.3583 266.556 12.9089 260.936 16.9295C262.146 17.578 263.443 18.3561 264.827 19.1343C269.15 15.9352 273.516 12.9089 278.358 10.4447Z" fill="#012169"/>
<path d="M286.442 6.72683C284.8 5.81897 279.093 3.70062 275.159 2.79276C273.992 3.22507 272.349 3.87355 271.225 4.34909C272.652 4.73818 277.969 6.16482 282.508 8.4561C283.676 7.89409 285.318 7.20238 286.442 6.72683Z" fill="#E31837"/>
<path d="M267.118 6.16481C262.06 8.49932 256.742 11.6985 253.846 13.5574C254.883 14.033 255.921 14.4221 257.348 15.1138C263.746 10.7906 268.761 8.15346 270.749 7.28883C269.323 6.77005 267.983 6.4242 267.118 6.16481Z" fill="#012169"/>
<path d="M290.247 5.38665C291.414 4.99756 292.754 4.65171 293.922 4.30585C290.549 2.87921 286.313 1.3661 282.508 0.415009C281.903 0.587935 280.087 1.06348 278.834 1.45257C280.131 1.84165 284.411 2.83598 290.247 5.38665ZM268.934 21.6417C270.317 22.4631 271.787 23.5872 273.214 24.5383C282.681 17.1889 292.019 11.5255 302.265 8.3264C300.839 7.59146 299.585 6.94298 297.985 6.16481C291.846 7.72115 281.341 11.9146 268.934 21.6417Z" fill="#E31837"/>
<path d="M0.0761719 29.337H6.99323C10.495 29.337 12.1378 27.5212 12.1378 24.9706C12.1378 22.8955 11.057 21.512 8.80896 21.0797C10.7976 20.6042 11.7055 19.3937 11.7055 17.6212C11.7055 15.3732 10.0627 13.5574 6.56091 13.5574H0.119403V29.337H0.0761719ZM6.08537 22.6361C7.38232 22.6361 8.29018 23.2845 8.29018 24.5815C8.29018 25.9649 7.42555 26.5269 6.08537 26.5269H3.83732V22.5928H6.08537V22.6361ZM5.65305 16.3242C6.95 16.3242 7.85786 16.8863 7.85786 18.1832C7.85786 19.4802 6.99323 20.0422 5.65305 20.0422H3.83732V16.3242H5.65305ZM26.1016 13.5142H22.2108L16.288 29.337H20.2221L21.3029 26.0514H27.0095L28.0903 29.337H32.0676L26.1016 13.5142ZM24.1562 17.3186L26.0151 23.1548H22.2108L24.1562 17.3186ZM51.7812 13.5142H48.193V24.1059L41.4488 13.5142H37.4283V29.337H41.0165V18.7884L47.7607 29.337H51.7812V13.5142ZM68.3389 29.337L63.1511 21.2959V29.337H59.3035V13.5142H63.1511V21.123L68.0795 13.5142H72.3594L67.1716 21.123L72.835 29.337H68.3389ZM86.4529 21.4256C86.4529 24.5815 88.3551 26.5269 90.8193 26.5269C93.2835 26.5269 95.1857 24.5815 95.1857 21.4256C95.1857 18.2697 93.2835 16.3242 90.8193 16.3242C88.3551 16.3242 86.4529 18.2697 86.4529 21.4256ZM82.3892 21.4256C82.4324 16.7998 85.6748 13.1683 90.8193 13.1683C95.9639 13.1683 99.2063 16.7998 99.2495 21.4256C99.2063 26.0514 95.9639 29.6828 90.8193 29.6828C85.6748 29.6828 82.4324 26.0514 82.3892 21.4256ZM104.524 29.337H108.371V23.1116H113.386V20.0854H108.371V16.5404H114.424L115.116 13.5142H104.524V29.337ZM133.057 13.5142H129.166L123.243 29.337H127.177L128.258 26.0514H133.965L135.045 29.337H139.023L133.057 13.5142ZM131.111 17.3186L132.97 23.1548H129.166L131.111 17.3186ZM161.849 13.5142H157.353L153.246 22.0741L149.139 13.5142H144.643V29.337H148.101V18.7452L153.203 29.337L158.304 18.7452V29.337H161.892L161.849 13.5142ZM169.328 29.337H180.136V26.3108H173.176V22.7658H178.666V19.826H173.176V16.5404H179.531L180.222 13.5142H169.328V29.337ZM194.791 29.337H198.985L195.051 22.6361C197.212 22.0308 198.25 20.5177 198.25 18.3129C198.25 15.4596 196.521 13.5574 192.63 13.5574H186.534V29.3802H190.295V23.1548H191.333L194.791 29.337ZM191.895 16.4539C193.494 16.4539 194.316 17.1456 194.316 18.4858C194.316 19.826 193.494 20.5177 191.895 20.5177H190.252V16.4539H191.895ZM204.735 29.337H208.582V13.5574H204.735V29.337ZM227.518 25.1003C226.048 26.1378 224.751 26.4837 223.411 26.4837C220.471 26.4837 218.396 24.4518 218.396 21.4256C218.396 18.3994 220.428 16.3675 223.281 16.3675C224.578 16.3675 225.875 16.7133 227.302 17.7509V14.1627C226.005 13.4277 224.492 13.1251 222.805 13.1251C217.574 13.1251 214.289 16.7566 214.246 21.3823C214.289 26.0514 217.488 29.6396 222.805 29.6396C224.578 29.6396 226.091 29.337 227.475 28.602V25.1003H227.518ZM241.611 13.5142H237.72L231.798 29.337H235.732L236.813 26.0514H242.519L243.6 29.337H247.577L241.611 13.5142ZM239.666 17.3186L241.525 23.1548H237.72L239.666 17.3186Z" fill="#012169"/>
</g>
</g>
</g>
<defs>
<clipPath id="clip0_1_75">
<rect width="311.42" height="31.17" fill="white" transform="translate(0 0.415009)"/>
</clipPath>
<clipPath id="clip1_1_75">
<rect width="311.42" height="31.17" fill="white" transform="translate(0 0.415009)"/>
</clipPath>
<clipPath id="clip2_1_75">
<rect width="311.268" height="31.17" fill="white" transform="translate(0.0761719 0.415009)"/>
</clipPath>
</defs>
</svg>
