<svg width="59" height="32" viewBox="0 0 59 32" fill="none" xmlns="http://www.w3.org/2000/svg">
<path d="M29.5084 31.585C38.587 23.8033 51.3403 16.2378 58.3439 13.5142C57.2631 12.8225 55.577 11.8282 53.6748 10.7474C44.6394 13.7303 34.0909 20.3448 24.6664 27.8239C26.266 29.0343 27.952 30.2881 29.5084 31.585Z" fill="#E31837"/>
<path d="M25.3581 10.4447C24.0179 9.79626 22.5481 9.19102 21.424 8.67224C18.0087 10.3583 13.5559 12.9089 7.93579 16.9295C9.14628 17.578 10.4432 18.3561 11.8266 19.1343C16.1498 15.9352 20.5162 12.9089 25.3581 10.4447Z" fill="#012169"/>
<path d="M33.4425 6.72683C31.7997 5.81897 26.0931 3.70062 22.159 2.79276C20.9917 3.22507 19.3489 3.87355 18.2249 4.34909C19.6516 4.73818 24.969 6.16482 29.5084 8.4561C30.6756 7.89409 32.3184 7.20238 33.4425 6.72683Z" fill="#E31837"/>
<path d="M14.1179 6.16481C9.05984 8.49932 3.74234 11.6985 0.845825 13.5574C1.88338 14.033 2.92093 14.4221 4.34758 15.1138C10.7459 10.7906 15.7607 8.15346 17.7494 7.28883C16.3227 6.77005 14.9826 6.4242 14.1179 6.16481Z" fill="#012169"/>
<path d="M37.2468 5.38665C38.4141 4.99756 39.7543 4.65171 40.9215 4.30585C37.5495 2.87921 33.3128 1.3661 29.5084 0.415009C28.9031 0.587935 27.0874 1.06348 25.8337 1.45257C27.1306 1.84165 31.4106 2.83598 37.2468 5.38665ZM15.9337 21.6417C17.3171 22.4631 18.7869 23.5872 20.2136 24.5383C29.6813 17.1889 39.0193 11.5255 49.2652 8.3264C47.8386 7.59146 46.5849 6.94298 44.9853 6.16481C38.8464 7.72115 28.3411 11.9146 15.9337 21.6417Z" fill="#E31837"/>
</svg>
