<svg width="109" height="30" viewBox="0 0 109 30" fill="none" xmlns="http://www.w3.org/2000/svg">
<path d="M4.2832 9.11719C3.60742 9.11719 3.01758 8.99219 2.51367 8.74219C2.00977 8.49219 1.61914 8.13477 1.3418 7.66992C1.06445 7.20508 0.925781 6.64844 0.925781 6V0.744141H2.04492V5.90625C2.04492 6.66016 2.23633 7.23242 2.61914 7.62305C3.00195 8.01367 3.55469 8.20898 4.27734 8.20898C5.01953 8.20898 5.5957 8.00781 6.00586 7.60547C6.41992 7.19922 6.62695 6.60742 6.62695 5.83008V0.744141H7.74023V5.89453C7.74023 6.5625 7.59766 7.13672 7.3125 7.61719C7.03125 8.09766 6.63086 8.46875 6.11133 8.73047C5.5957 8.98828 4.98633 9.11719 4.2832 9.11719ZM10.6523 3.51562V9H9.65625V0.744141H10.957L15.4219 7.82227C15.375 7.05273 15.3516 6.49805 15.3516 6.1582V0.744141H16.3594V9H15.0117L10.5938 1.96875C10.6016 2.22656 10.6133 2.48438 10.6289 2.74219C10.6445 3 10.6523 3.25781 10.6523 3.51562ZM21.5625 1.6582V9H20.4492V1.6582H17.6133V0.744141H24.3984V1.6582H21.5625ZM28.9629 9.11719C28.2871 9.11719 27.6973 8.99219 27.1934 8.74219C26.6895 8.49219 26.2988 8.13477 26.0215 7.66992C25.7441 7.20508 25.6055 6.64844 25.6055 6V0.744141H26.7246V5.90625C26.7246 6.66016 26.916 7.23242 27.2988 7.62305C27.6816 8.01367 28.2344 8.20898 28.957 8.20898C29.6992 8.20898 30.2754 8.00781 30.6855 7.60547C31.0996 7.19922 31.3066 6.60742 31.3066 5.83008V0.744141H32.4199V5.89453C32.4199 6.5625 32.2773 7.13672 31.9922 7.61719C31.7109 8.09766 31.3105 8.46875 30.791 8.73047C30.2754 8.98828 29.666 9.11719 28.9629 9.11719ZM38.0391 8.19727C39.1953 8.19727 40.0645 7.625 40.6465 6.48047L41.5605 6.9375C41.2207 7.64844 40.7422 8.18945 40.125 8.56055C39.5117 8.93164 38.7988 9.11719 37.9863 9.11719C37.1504 9.11719 36.4316 8.94336 35.8301 8.5957C35.2285 8.24805 34.7656 7.75391 34.4414 7.11328C34.1211 6.46875 33.9609 5.70898 33.9609 4.83398C33.9609 3.95508 34.1211 3.20117 34.4414 2.57227C34.7617 1.94336 35.2227 1.46094 35.8242 1.125C36.4258 0.789063 37.1445 0.621094 37.9805 0.621094C38.8594 0.621094 39.5938 0.792969 40.1836 1.13672C40.7734 1.48047 41.207 1.99023 41.4844 2.66602L40.4238 3.01758C40.2324 2.53711 39.9238 2.16992 39.498 1.91602C39.0762 1.66211 38.5742 1.53516 37.9922 1.53516C37.0781 1.53516 36.3672 1.83008 35.8594 2.41992C35.3516 3.00586 35.0977 3.81055 35.0977 4.83398C35.0977 5.50586 35.2168 6.0957 35.4551 6.60352C35.6973 7.10742 36.0371 7.5 36.4746 7.78125C36.916 8.05859 37.4375 8.19727 38.0391 8.19727ZM44.127 5.83594V9H43.0078V0.744141H44.127V4.88086L48.1055 0.744141H49.4238L45.9082 4.33008L49.8926 9H48.5039L45.2051 5.01562L44.127 5.83594ZM51.8848 0.304688V1.3125H50.8301V0.304688H51.8848ZM51.8848 2.66016V9H50.8301V2.66016H51.8848ZM55.9453 8.95312C55.6016 9.04688 55.2461 9.09375 54.8789 9.09375C54.457 9.09375 54.1406 8.97461 53.9297 8.73633C53.7188 8.49414 53.6133 8.13477 53.6133 7.6582V3.42773H52.8809V2.66016H53.6543L53.9648 1.24219H54.668V2.66016H55.8398V3.42773H54.668V7.42969C54.668 7.73438 54.7168 7.94922 54.8145 8.07422C54.916 8.19531 55.0898 8.25586 55.3359 8.25586C55.4688 8.25586 55.6719 8.22852 55.9453 8.17383V8.95312Z" fill="#1E40AF"/>
<path d="M65 9L58 9L58 1L65 9Z" fill="#C40404"/>
</svg>
